<?xml version="1.0" standalone="no"?>
<!DOCTYPE svg PUBLIC "-//W3C//DTD SVG 20010904//EN"
 "http://www.w3.org/TR/2001/REC-SVG-20010904/DTD/svg10.dtd">
<svg version="1.0" xmlns="http://www.w3.org/2000/svg"
 width="750.000000pt" height="750.000000pt" viewBox="0 0 750.000000 750.000000"
 preserveAspectRatio="xMidYMid meet">
<metadata>
Created by potrace 1.14, written by Peter Selinger 2001-2017
</metadata>
<g transform="translate(0.000000,750.000000) scale(0.100000,-0.100000)"
fill="#000000" stroke="none">
<path d="M3695 7149 c-288 -80 -524 -310 -578 -564 -27 -125 -40 -247 -33
-315 20 -216 164 -434 355 -534 l73 -38 -59 -59 c-63 -64 -127 -161 -145 -221
-6 -21 -16 -38 -22 -38 -18 0 -217 39 -282 55 -214 53 -384 143 -535 283 l-69
64 0 57 c0 37 -7 69 -20 94 -11 20 -20 40 -20 43 0 3 48 4 108 2 95 -3 115 -7
174 -35 37 -17 87 -50 112 -73 54 -50 82 -50 65 0 -22 62 -155 147 -267 171
-38 8 -86 9 -142 4 -113 -10 -223 -6 -232 8 -12 19 -9 85 6 120 29 71 163 155
249 158 18 1 43 4 57 8 19 6 8 10 -47 15 -102 11 -165 -9 -237 -74 -37 -34
-60 -66 -72 -98 -10 -26 -19 -49 -21 -51 -2 -3 -27 18 -56 46 -55 54 -103 83
-137 83 -11 0 -20 -2 -20 -4 0 -2 37 -41 83 -87 83 -85 127 -159 113 -195 -7
-18 -12 -17 -121 16 -91 28 -219 31 -295 8 -123 -38 -120 -73 5 -57 111 15
217 7 298 -22 51 -18 66 -27 60 -39 -3 -8 -7 -49 -8 -90 -1 -45 -10 -99 -23
-135 -43 -125 -56 -228 -56 -445 0 -184 3 -219 28 -338 31 -153 110 -391 168
-507 41 -81 140 -233 181 -277 13 -13 40 -47 62 -74 22 -27 73 -87 115 -134
41 -47 93 -105 114 -130 46 -53 101 -101 219 -190 47 -36 86 -68 86 -71 1 -3
-17 -11 -39 -18 -93 -28 -240 -108 -355 -195 -128 -95 -335 -298 -445 -434
-36 -45 -68 -81 -71 -82 -4 0 -12 14 -20 32 -33 79 -200 202 -291 214 -39 5
-55 14 -83 46 -46 50 -57 79 -57 150 0 85 33 145 145 261 179 186 207 296 151
587 -24 125 -29 173 -31 350 -1 113 -2 208 -3 212 0 4 -11 10 -24 14 -13 3
-33 17 -45 30 -11 13 -28 24 -37 24 -9 0 -34 18 -55 40 -33 34 -45 40 -79 40
-22 0 -40 -4 -40 -10 0 -5 -7 -10 -15 -10 -8 0 -15 6 -15 13 0 24 -58 69 -110
87 -67 23 -115 13 -152 -31 -15 -18 -31 -28 -38 -24 -6 4 -32 1 -57 -5 -55
-16 -77 -46 -80 -114 -2 -28 -6 -68 -9 -88 -5 -32 -2 -41 21 -63 28 -25 28
-25 22 -123 -4 -53 -18 -158 -32 -232 -63 -336 -64 -364 -16 -480 42 -100 83
-155 168 -230 43 -38 90 -80 105 -93 31 -28 44 -92 34 -162 l-7 -45 -47 38
c-85 69 -153 82 -198 37 l-25 -25 -60 42 c-53 38 -65 42 -115 42 -75 -2 -99
-25 -98 -94 0 -46 -1 -50 -23 -50 -13 0 -41 -17 -64 -37 l-41 -37 6 -58 c10
-97 29 -124 196 -273 95 -84 182 -155 191 -155 15 0 153 -180 207 -271 29 -47
86 -162 129 -255 115 -254 168 -336 261 -408 110 -84 206 -116 343 -116 106 1
163 12 200 39 31 23 47 28 31 9 -61 -77 -162 -373 -162 -476 0 -27 34 -72 45
-60 10 9 44 142 39 150 -7 10 77 201 84 193 3 -3 51 84 106 192 108 211 208
372 275 440 71 73 43 122 -32 55 -23 -20 -46 -43 -50 -49 -4 -7 -15 -13 -22
-13 -8 0 -15 -4 -15 -9 0 -12 -106 -91 -122 -91 -7 0 -63 -52 -126 -116 -66
-68 -128 -122 -150 -131 -101 -42 -303 10 -408 104 -60 55 -98 123 -243 436
-90 195 -210 355 -309 413 -52 30 -264 208 -329 276 -42 44 -71 113 -60 142
13 34 101 11 232 -61 50 -28 110 -61 135 -74 25 -13 47 -26 50 -29 3 -3 19
-16 37 -28 17 -12 35 -31 38 -41 12 -37 37 -32 164 31 115 58 130 63 187 62
72 -1 146 -33 204 -86 43 -40 120 -140 120 -157 0 -14 -21 -48 -73 -118 -38
-51 -41 -73 -11 -73 21 0 142 99 184 150 307 378 644 671 856 745 l67 24 34
-45 c19 -24 37 -44 41 -44 4 0 18 -10 32 -23 65 -59 281 -174 398 -212 28 -9
52 -21 52 -26 0 -5 -13 -35 -29 -67 -77 -153 -93 -310 -37 -358 56 -48 136
-26 225 63 l57 58 27 -70 c38 -100 85 -173 135 -209 37 -26 53 -31 101 -31 47
0 65 5 99 29 78 54 133 221 113 344 l-8 52 34 0 c119 0 413 90 559 171 108 60
225 146 239 176 5 12 27 32 50 44 110 60 255 161 321 223 84 79 66 82 184 -28
229 -213 442 -541 507 -781 27 -97 27 -108 26 -340 -1 -221 -3 -254 -32 -418
-17 -97 -37 -199 -45 -225 -49 -159 -69 -222 -93 -281 -67 -169 -203 -304
-349 -347 -51 -15 -87 -16 -256 -11 -225 8 -250 14 -434 111 -454 241 -751
551 -758 791 -1 45 1 50 22 53 51 7 271 -87 387 -166 46 -31 64 -38 77 -31 10
5 18 18 18 27 0 31 -97 110 -200 162 -25 13 -55 35 -68 49 -53 62 -76 228 -37
271 18 20 27 22 80 17 104 -8 205 -68 418 -251 30 -25 57 -46 60 -46 3 0 18
-11 33 -25 50 -46 92 -24 79 42 -5 29 -21 50 -68 92 -146 130 -271 258 -288
297 -33 72 -4 124 71 124 62 0 185 -32 252 -66 111 -56 376 -252 421 -312 12
-15 45 -53 73 -84 29 -32 67 -82 86 -112 18 -31 36 -56 41 -56 12 0 8 53 -8
106 -18 56 -58 115 -168 244 l-79 92 12 46 c11 45 139 353 182 437 11 22 30
52 43 67 13 15 26 41 30 58 4 16 12 33 19 37 42 25 39 79 -5 119 -34 31 -175
114 -193 114 -32 0 -64 -24 -87 -64 -13 -22 -34 -57 -47 -76 -13 -19 -21 -42
-19 -51 3 -10 -4 -30 -14 -46 -87 -132 -126 -185 -208 -276 -51 -58 -99 -108
-105 -110 -6 -3 -43 4 -81 14 -39 10 -104 18 -146 18 -63 1 -82 -3 -110 -22
-63 -42 -93 -133 -70 -215 5 -17 9 -32 8 -32 -1 0 -24 7 -51 15 -70 21 -154
19 -192 -4 -66 -40 -93 -164 -60 -275 13 -42 13 -47 -1 -42 -71 28 -147 13
-189 -37 -25 -29 -26 -36 -21 -99 8 -90 54 -221 113 -319 60 -99 186 -236 268
-292 34 -22 73 -52 87 -66 51 -51 398 -242 574 -316 89 -38 441 -45 551 -11
105 32 227 128 299 235 25 36 58 84 75 106 16 22 38 56 48 75 21 40 72 192 97
290 25 100 36 142 51 185 7 22 16 65 19 95 4 30 9 69 11 85 47 356 21 634 -82
877 -92 217 -350 549 -536 691 l-66 51 23 30 c13 17 37 63 55 101 89 197 120
303 141 488 20 180 -15 396 -84 512 -39 66 -38 69 33 80 102 17 329 79 424
116 143 56 176 73 276 135 162 100 269 235 305 385 37 159 26 379 -29 542 -33
97 -115 247 -179 326 -123 153 -397 315 -641 381 -239 64 -558 42 -751 -50
-243 -117 -368 -210 -460 -345 l-40 -57 -11 38 c-11 37 -16 72 -30 204 -12
111 -89 306 -163 413 -45 65 -121 134 -171 155 -234 99 -415 125 -575 81z
m285 -141 c134 -26 251 -107 333 -230 72 -108 100 -169 132 -293 35 -133 43
-281 22 -394 -25 -131 -63 -199 -167 -304 -50 -49 -90 -93 -90 -97 0 -16 29
-30 145 -70 226 -77 480 -139 499 -120 5 5 -3 57 -22 132 -65 256 -69 415 -13
533 91 195 300 366 521 427 59 16 313 16 410 0 169 -28 339 -98 505 -208 182
-120 303 -303 349 -526 19 -90 21 -260 5 -341 l-12 -56 -41 5 c-48 6 -81 -9
-56 -26 8 -5 30 -10 48 -10 17 0 32 -2 32 -5 0 -14 -30 -62 -48 -79 -21 -18
-22 -18 -55 3 -36 22 -67 27 -67 12 0 -5 16 -23 37 -40 44 -36 42 -41 -64
-113 l-73 -49 -46 37 c-35 29 -47 35 -57 25 -9 -10 -5 -19 21 -42 18 -16 40
-29 49 -29 27 0 -14 -25 -94 -59 -37 -16 -117 -49 -176 -75 -60 -25 -110 -46
-112 -46 -2 0 -5 17 -7 38 -4 49 -23 39 -23 -13 l0 -40 -125 -28 c-69 -15
-169 -30 -222 -34 -110 -7 -121 -17 -58 -52 35 -20 83 -81 63 -81 -4 0 -64 18
-133 39 -69 22 -179 53 -245 70 -258 65 -617 198 -977 362 -48 22 -122 52
-165 68 -99 37 -485 161 -501 161 -23 0 -11 22 44 80 31 32 79 69 107 83 54
26 117 78 117 96 0 6 -12 13 -27 16 -117 24 -172 48 -262 118 -110 84 -150
128 -190 207 -121 238 -103 539 40 707 15 17 28 35 30 40 10 23 130 107 198
139 68 32 172 65 241 77 31 6 107 -1 180 -15z m615 -1170 c9 -51 21 -101 26
-111 11 -20 5 -19 -98 9 l-53 14 45 66 c25 36 48 76 51 90 3 13 7 24 9 24 2 0
11 -42 20 -92z m-2150 -186 c103 -99 311 -224 463 -279 53 -19 153 -48 222
-65 69 -17 126 -31 128 -33 1 -1 -2 -45 -9 -96 -19 -162 21 -268 153 -404 95
-99 145 -125 257 -132 88 -6 179 13 245 52 58 34 155 124 192 176 l29 42 6
-109 c8 -150 36 -231 102 -301 116 -123 315 -163 504 -101 75 25 153 91 220
186 26 37 50 71 54 75 7 9 255 -77 364 -128 73 -33 227 -98 258 -109 14 -5 17
-18 17 -93 -1 -192 -40 -355 -130 -533 -39 -78 -52 -96 -137 -183 l-66 -68
-26 25 c-26 25 -80 50 -88 42 -7 -7 17 -48 45 -78 14 -15 24 -29 21 -31 -2 -2
-30 -23 -62 -46 l-58 -42 -44 35 c-24 20 -48 36 -54 36 -19 0 -12 -44 13 -74
l23 -30 -31 -17 c-57 -33 -174 -88 -192 -91 -15 -2 -20 6 -26 47 -8 56 -35 86
-54 60 -8 -10 -8 -31 -1 -70 5 -31 7 -58 4 -61 -11 -11 -150 -46 -237 -59
-264 -41 -713 14 -918 112 l-63 31 67 7 c37 4 88 13 113 21 25 8 55 14 67 14
37 0 206 112 277 184 66 68 177 224 213 299 16 34 21 37 58 37 70 0 115 17
122 47 11 41 -14 52 -104 46 -86 -6 -131 9 -190 64 -26 25 -89 135 -106 186
-4 12 -14 17 -27 15 -16 -2 -27 -19 -45 -68 -13 -36 -24 -71 -24 -79 0 -15 34
-50 121 -124 48 -40 56 -51 51 -75 -13 -73 -164 -236 -315 -340 -67 -46 -93
-57 -193 -83 -180 -45 -320 -37 -457 26 -31 14 -62 25 -69 25 -8 0 -43 20 -78
44 -36 25 -103 68 -150 96 -146 90 -255 192 -409 386 -5 6 -30 41 -55 78 -25
37 -59 81 -75 98 -30 32 -115 182 -143 253 -9 22 -37 105 -62 185 -108 343
-121 553 -55 832 l21 87 25 -16 c15 -10 47 -17 79 -17 67 -1 100 22 134 92 14
28 25 51 25 52 1 0 28 -26 60 -58z m1443 -561 c49 -60 55 -91 17 -83 -26 4
-105 85 -105 106 0 16 22 37 35 33 5 -2 29 -27 53 -56z m95 5 c18 -14 23 -36
8 -36 -5 0 -16 11 -25 25 -18 27 -11 32 17 11z m-522 -116 c42 -23 65 -114 35
-139 -18 -15 -40 -5 -76 33 -28 31 -30 83 -3 104 20 15 20 15 44 2z m-2018
-205 c32 -20 60 -79 54 -111 -2 -14 0 -27 4 -30 5 -3 12 9 15 26 7 35 29 50
73 50 49 0 92 -61 70 -101 -6 -11 -8 -25 -6 -32 3 -7 12 5 21 26 18 42 54 52
63 17 4 -14 11 -19 23 -15 12 4 24 -2 34 -17 14 -20 14 -24 -3 -43 -10 -11
-25 -33 -32 -50 -12 -25 -20 -30 -48 -30 -36 0 -39 -5 -55 -78 -8 -35 -40 -67
-66 -67 -11 0 -41 19 -65 41 -41 38 -45 46 -45 89 0 54 -14 71 -63 76 -23 3
-28 1 -17 -6 12 -8 12 -10 -3 -16 -25 -9 -47 2 -47 25 0 11 -4 23 -10 26 -5 3
-10 0 -10 -8 0 -24 -47 -58 -88 -64 -51 -7 -86 23 -80 68 5 35 -8 49 -17 19
-3 -11 -11 -20 -16 -20 -15 0 -10 36 6 50 11 9 13 16 5 24 -45 45 48 145 97
105 12 -11 17 -11 20 -2 10 29 47 63 76 71 36 10 72 2 110 -23z m3271 9 c23
-23 21 -96 -4 -119 -18 -17 -20 -16 -50 13 -38 38 -39 73 -4 101 32 25 38 26
58 5z m104 -71 c-2 -9 -8 -18 -15 -20 -7 -3 -9 3 -6 16 6 25 26 28 21 4z
m-3463 -239 c24 -16 38 -15 78 1 15 6 17 1 17 -39 0 -40 5 -52 38 -87 91 -98
164 -89 198 27 14 48 18 54 42 54 31 0 45 8 58 33 7 12 9 -32 6 -130 -3 -121
0 -174 19 -288 41 -251 26 -341 -74 -474 -62 -81 -178 -191 -201 -191 -10 0
-15 -4 -11 -10 3 -5 13 -6 22 -3 13 5 15 3 9 -13 -31 -76 -38 -110 -34 -172 3
-56 10 -76 40 -123 l36 -56 -42 -11 c-35 -9 -82 -37 -211 -126 -18 -12 -25
-10 -73 24 l-53 38 54 25 c118 54 168 128 168 249 0 40 -5 89 -11 108 -5 19
-10 36 -10 37 0 2 9 3 20 3 29 0 25 17 -7 24 -76 20 -217 161 -271 273 -49
104 -52 182 -17 428 22 155 26 209 21 292 l-7 102 28 -14 c42 -22 86 -19 114
9 30 30 25 29 54 10z m1730 -1084 c3 -5 1 -10 -4 -10 -6 0 -11 5 -11 10 0 6 2
10 4 10 3 0 8 -4 11 -10z m35 -20 c0 -5 -2 -10 -4 -10 -3 0 -8 5 -11 10 -3 6
-1 10 4 10 6 0 11 -4 11 -10z m201 -96 c59 -24 94 -45 109 -66 l22 -29 -29 14
c-15 8 -67 33 -115 56 -49 23 -88 46 -88 51 0 15 8 13 101 -26z m-2284 -123
c43 -33 100 -82 127 -111 44 -47 47 -53 33 -67 -14 -14 -20 -13 -64 14 -26 17
-78 47 -114 67 -75 41 -92 57 -108 105 -16 48 -15 51 18 51 21 0 54 -18 108
-59z m207 -2 c26 -18 55 -43 63 -56 15 -23 15 -26 -10 -51 l-27 -26 -34 33
c-19 18 -36 46 -39 64 -3 18 -8 40 -12 50 -10 25 5 21 59 -14z m2503 -34 c87
-26 95 -32 52 -40 -24 -4 -46 0 -74 15 -21 11 -45 20 -52 20 -7 0 -17 10 -24
22 -10 19 -9 20 7 13 11 -4 52 -18 91 -30z m920 -51 c-3 -3 -12 -4 -19 -1 -8
3 -5 6 6 6 11 1 17 -2 13 -5z m-552 -12 l50 -7 -54 -28 c-35 -17 -71 -27 -98
-27 -41 0 -55 11 -33 25 6 3 10 15 10 26 0 21 28 23 125 11z m347 -22 c-12 -5
-25 -16 -28 -24 -3 -8 -26 -19 -52 -26 -57 -14 -152 -28 -152 -22 0 2 17 21
38 42 l37 38 90 1 c64 0 83 -3 67 -9z m-798 -57 c8 -21 -47 -97 -89 -121 -19
-12 -35 -20 -35 -17 0 9 43 103 61 131 20 34 52 37 63 7z m1931 17 c8 -13 -15
-48 -35 -53 -22 -6 -63 11 -55 23 3 5 17 10 31 10 14 0 27 7 30 15 7 17 20 20
29 5z m-1755 -174 c0 -11 -3 -32 -7 -45 -6 -22 -6 -22 -19 9 -8 18 -14 49 -14
69 l1 36 19 -24 c11 -13 20 -33 20 -45z m1670 58 c0 -13 -182 -371 -201 -395
l-19 -24 0 23 c0 46 183 402 207 402 7 0 13 -3 13 -6z m-1439 -76 c0 -7 2 -21
4 -30 5 -25 -14 -33 -32 -15 -12 12 -13 18 -1 36 14 23 28 27 29 9z m-446 -65
c-36 -30 -87 -63 -97 -63 -5 0 -8 11 -8 25 0 19 5 25 23 25 12 0 40 11 62 24
49 30 61 23 20 -11z m385 -99 c0 -22 -66 -87 -83 -81 -4 1 -17 16 -27 33 l-19
30 47 36 c43 32 49 34 65 20 9 -8 17 -25 17 -38z"/>
<path d="M3574 6756 c-76 -35 -86 -54 -79 -156 15 -216 65 -387 141 -482 18
-24 34 -48 34 -53 0 -13 65 -75 100 -97 70 -42 177 -59 248 -38 41 11 127 68
164 107 114 120 128 428 28 623 -33 64 -111 120 -167 120 -15 0 -43 -9 -61
-20 -21 -13 -50 -20 -85 -20 -32 0 -61 -6 -75 -16 -22 -15 -25 -15 -45 4 -29
27 -89 52 -124 51 -15 0 -51 -11 -79 -23z m166 -108 c0 -6 -6 -5 -15 2 -8 7
-15 14 -15 16 0 2 7 1 15 -2 8 -4 15 -11 15 -16z"/>
<path d="M5740 6290 c-14 -4 -59 -8 -100 -9 -45 -1 -86 -7 -104 -16 -15 -8
-40 -15 -54 -15 -20 0 -42 -17 -85 -62 -94 -101 -237 -419 -237 -526 0 -59 43
-131 97 -165 47 -29 304 -132 364 -146 94 -22 264 -7 347 29 24 11 72 48 108
84 109 109 151 229 141 406 -10 178 -78 315 -185 373 -84 45 -226 68 -292 47z
m110 -140 c-20 -13 -60 -13 -60 0 0 6 17 10 38 10 27 0 33 -3 22 -10z"/>
<path d="M2383 5300 c-47 -19 -10 -59 44 -48 19 3 32 48 15 48 -6 0 -16 2 -24
4 -7 3 -23 1 -35 -4z"/>
<path d="M5284 4048 c1 -27 35 -46 100 -54 55 -8 60 5 14 37 -18 13 -34 27
-36 31 -2 4 -21 8 -41 8 -33 0 -38 -3 -37 -22z"/>
<path d="M5241 3866 c-9 -11 -5 -19 19 -40 37 -30 48 -32 57 -9 4 11 -3 24
-23 40 -34 27 -38 28 -53 9z"/>
<path d="M1510 4450 c0 -5 5 -10 10 -10 6 0 10 5 10 10 0 6 -4 10 -10 10 -5 0
-10 -4 -10 -10z"/>
<path d="M1560 4420 c0 -5 5 -10 10 -10 6 0 10 5 10 10 0 6 -4 10 -10 10 -5 0
-10 -4 -10 -10z"/>
<path d="M1516 4411 c-4 -5 -2 -12 3 -15 5 -4 12 -2 15 3 4 5 2 12 -3 15 -5 4
-12 2 -15 -3z"/>
<path d="M1550 4360 c0 -5 5 -10 10 -10 6 0 10 5 10 10 0 6 -4 10 -10 10 -5 0
-10 -4 -10 -10z"/>
<path d="M1466 4158 c-19 -27 -21 -59 -4 -76 18 -18 55 -14 71 8 12 18 27 21
110 24 l95 3 7 -101 c4 -56 3 -144 -2 -196 l-8 -94 -38 -8 c-21 -4 -98 -4
-170 1 -78 5 -137 5 -144 -1 -11 -9 -170 6 -182 17 -3 3 0 72 7 153 7 81 12
171 12 201 l0 53 58 -6 c31 -4 78 -9 105 -12 31 -4 47 -2 47 5 0 6 -8 11 -17
12 -10 0 -58 6 -108 13 -49 8 -93 10 -98 7 -6 -6 -36 -348 -37 -418 0 -26 11
-30 133 -50 124 -20 256 -27 281 -14 12 5 50 12 86 16 36 3 71 10 78 14 16 10
26 237 15 346 l-8 80 -108 0 c-79 0 -107 3 -107 13 0 16 -10 15 -30 -3 -16
-14 -18 -14 -23 0 -5 10 0 15 13 15 11 0 20 5 20 10 0 19 -39 10 -54 -12z m24
-48 c10 0 22 -4 25 -10 4 -6 -5 -10 -19 -10 -14 0 -26 2 -26 4 0 2 -2 10 -3
18 -2 7 -2 10 0 6 3 -5 13 -8 23 -8z m65 -411 l30 -1 -30 -9 c-37 -11 -165 0
-165 14 0 6 25 8 68 4 37 -4 81 -7 97 -8z"/>
<path d="M1234 3996 c-3 -8 -4 -27 -2 -43 3 -24 9 -29 41 -34 33 -5 37 -4 37
17 0 21 -27 41 -39 28 -3 -4 0 -9 7 -11 13 -5 7 -23 -8 -23 -20 0 -30 37 -16
56 14 18 15 18 35 0 22 -20 30 -9 9 12 -16 16 -57 15 -64 -2z"/>
<path d="M1337 3992 c-22 -24 -21 -55 1 -75 10 -10 21 -17 25 -17 14 0 37 34
37 55 0 23 -23 55 -39 55 -4 0 -15 -8 -24 -18z m42 -16 c9 -11 10 -20 1 -36
-19 -36 -52 -5 -36 36 7 18 20 18 35 0z"/>
<path d="M1417 3963 c7 -49 27 -72 51 -57 18 12 35 84 20 84 -4 0 -11 0 -15 0
-4 0 -6 -16 -4 -35 2 -26 -1 -35 -12 -35 -19 0 -27 22 -21 54 3 18 0 26 -10
26 -11 0 -13 -9 -9 -37z"/>
<path d="M1709 3993 c-1 -4 -1 -17 0 -28 1 -19 0 -19 -15 3 -13 17 -26 22 -58
22 l-41 0 0 -45 c0 -42 2 -45 28 -45 15 0 27 5 27 11 0 6 -7 9 -15 6 -21 -9
-28 10 -8 22 17 10 17 10 0 11 -26 0 -16 23 11 25 19 1 22 -3 22 -37 0 -25 4
-38 14 -38 9 0 12 9 9 28 l-4 27 16 -28 c9 -16 19 -27 21 -24 9 8 11 88 3 93
-5 3 -10 2 -10 -3z"/>
<path d="M1508 3945 c-4 -50 7 -60 47 -45 46 17 29 90 -21 90 -19 0 -22 -6
-26 -45z m56 13 c7 -12 6 -21 -3 -32 -21 -25 -31 -19 -31 20 0 37 14 42 34 12z"/>
<path d="M1363 3840 c-1 -38 2 -50 13 -50 11 0 13 6 9 20 -4 12 -2 20 5 20 7
0 14 -9 17 -20 9 -33 19 -23 18 18 -1 47 -10 62 -38 62 -20 0 -22 -6 -24 -50z
m47 20 c0 -5 -7 -10 -15 -10 -8 0 -15 5 -15 10 0 6 7 10 15 10 8 0 15 -4 15
-10z"/>
<path d="M1459 3835 c-16 -43 -16 -45 2 -45 13 0 17 5 12 17 -5 13 -2 15 11
10 10 -4 20 -7 22 -7 3 0 2 -4 -1 -10 -3 -5 1 -10 10 -10 12 0 15 6 9 23 -25
82 -42 88 -65 22z m41 10 c0 -8 -4 -15 -10 -15 -5 0 -10 7 -10 15 0 8 5 15 10
15 6 0 10 -7 10 -15z"/>
<path d="M1553 3835 c0 -32 4 -45 14 -45 8 0 11 5 8 11 -4 6 1 17 11 24 18 13
18 14 2 15 -10 0 -18 5 -18 11 0 6 9 9 20 6 13 -3 20 0 20 9 0 9 -11 14 -28
14 -27 0 -29 -2 -29 -45z"/>
<path d="M1490 3310 c0 -5 7 -10 15 -10 8 0 15 5 15 10 0 6 -7 10 -15 10 -8 0
-15 -4 -15 -10z"/>
</g>
</svg>
