<?xml version="1.0" standalone="no"?>
<!DOCTYPE svg PUBLIC "-//W3C//DTD SVG 20010904//EN"
 "http://www.w3.org/TR/2001/REC-SVG-20010904/DTD/svg10.dtd">
<svg version="1.0" xmlns="http://www.w3.org/2000/svg"
 width="280.000000pt" height="280.000000pt" viewBox="0 0 280.000000 280.000000"
 preserveAspectRatio="xMidYMid meet">
<metadata>
Created by potrace 1.11, written by Peter Selinger 2001-2013
</metadata>
<g transform="translate(0.000000,280.000000) scale(0.100000,-0.100000)"
fill="#000000" stroke="none">
<path d="M1021 2607 l-203 -152 -45 -110 c-97 -243 -122 -398 -89 -547 29
-128 119 -255 258 -361 61 -47 906 -557 976 -590 27 -13 29 -58 6 -138 -41
-139 -137 -271 -207 -284 -48 -9 -92 13 -300 150 -163 106 -282 166 -368 185
-76 17 -200 8 -269 -19 -75 -28 -183 -113 -247 -191 -50 -62 -159 -257 -149
-267 3 -3 22 9 43 26 122 97 296 106 463 23 30 -16 110 -65 177 -110 208 -139
310 -179 430 -169 131 10 169 46 423 403 138 194 437 644 442 664 4 17 -242
168 -712 440 -240 139 -338 208 -427 304 -110 118 -162 239 -163 378 l0 67
123 -79 c162 -104 238 -144 338 -182 72 -27 98 -32 179 -32 69 -1 107 4 138
17 85 35 314 203 432 318 69 67 146 157 139 163 -2 2 -53 -18 -114 -44 -144
-62 -243 -84 -349 -77 -45 2 -101 13 -126 23 -53 21 -173 91 -310 179 -102 66
-270 165 -280 164 -3 0 -97 -68 -209 -152z"/>
</g>
</svg>
