<?xml version="1.0" standalone="no"?>
<!DOCTYPE svg PUBLIC "-//W3C//DTD SVG 20010904//EN"
 "http://www.w3.org/TR/2001/REC-SVG-20010904/DTD/svg10.dtd">
<svg version="1.0" xmlns="http://www.w3.org/2000/svg"
 width="1225.000000pt" height="1225.000000pt" viewBox="0 0 1225.000000 1225.000000"
 preserveAspectRatio="xMidYMid meet">
<metadata>
Created by potrace 1.14, written by Peter Selinger 2001-2017
</metadata>
<g transform="translate(0.000000,1225.000000) scale(0.100000,-0.100000)"
fill="#000000" stroke="none">
<path d="M4785 12229 c-72 -20 -185 -150 -296 -336 -201 -339 -288 -583 -330
-927 -12 -98 -8 -479 7 -760 l7 -119 -29 6 c-16 4 -72 12 -125 19 l-96 12 -18
76 c-21 91 -66 222 -106 308 -16 35 -29 69 -29 76 0 19 147 40 216 32 43 -5
55 -3 52 6 -5 15 -141 36 -241 37 -55 1 -69 4 -74 19 -4 9 -49 86 -100 171
-51 84 -93 156 -93 159 0 3 -11 20 -25 38 -14 18 -25 36 -25 39 0 4 -15 27
-32 53 -18 26 -37 55 -43 64 -45 76 -166 229 -240 304 -136 137 -250 185 -386
163 -76 -12 -76 -12 -142 -76 -49 -48 -86 -107 -122 -198 -31 -77 -116 -431
-135 -566 -43 -296 -45 -679 -5 -829 8 -30 26 -116 40 -190 14 -74 30 -148 35
-165 6 -16 35 -124 66 -240 71 -266 109 -386 189 -605 98 -265 148 -409 224
-639 38 -115 85 -240 104 -278 18 -37 67 -160 107 -273 66 -186 151 -402 288
-735 27 -66 102 -237 167 -380 164 -361 289 -665 380 -923 l33 -93 -62 -87
c-57 -79 -67 -88 -109 -99 -134 -33 -238 -134 -292 -283 -10 -28 -19 -35 -45
-38 -18 -2 -49 -14 -69 -26 -65 -42 -154 -176 -180 -273 -11 -38 -16 -43 -67
-62 -76 -29 -77 -28 -70 27 10 85 16 174 26 382 5 113 15 276 22 364 l12 158
38 24 c23 15 40 34 44 52 3 15 13 48 22 74 15 44 15 50 -2 84 -15 33 -15 38
-2 53 22 24 30 75 16 101 -17 31 -19 174 -3 196 7 10 13 36 13 57 0 98 -158
167 -283 123 -76 -26 -82 -40 -112 -251 -38 -262 -41 -315 -21 -353 11 -22 24
-32 40 -32 17 0 31 -13 53 -48 36 -59 37 2 -3 -895 -6 -121 -10 -149 -23 -156
-27 -14 -228 -19 -371 -9 -74 5 -136 10 -137 12 -2 1 -10 83 -18 182 -9 98
-22 238 -31 309 -8 72 -19 171 -24 220 -6 50 -16 133 -24 185 -8 61 -10 115
-5 150 4 30 8 128 8 218 1 101 5 162 11 162 6 0 10 -2 10 -4 0 -15 73 -367 81
-394 17 -51 56 -92 89 -92 44 0 64 52 58 154 -7 108 -82 301 -177 453 -37 59
-75 128 -84 153 -28 75 -87 120 -157 120 -107 0 -174 -110 -120 -198 12 -20
20 -50 20 -78 0 -25 4 -53 9 -63 7 -12 5 -32 -7 -64 -14 -39 -15 -53 -4 -92 7
-25 12 -66 12 -91 0 -35 7 -56 30 -87 31 -45 31 -42 60 -382 34 -389 61 -685
66 -717 l6 -38 -54 0 c-61 0 -233 -31 -297 -54 -138 -50 -212 -124 -231 -233
-6 -37 -15 -72 -19 -78 -5 -5 -19 -44 -32 -85 -36 -112 -34 -243 4 -325 15
-32 39 -74 52 -92 l25 -32 -26 -38 c-38 -57 -32 -143 19 -246 43 -86 88 -128
169 -157 35 -12 54 -25 56 -37 7 -38 67 -180 93 -219 87 -128 224 -156 435
-89 20 6 23 1 38 -72 84 -395 66 -348 179 -465 l100 -103 -6 48 c-4 27 -14
112 -23 190 -9 78 -24 202 -33 275 -9 73 -15 134 -14 136 2 1 47 -5 100 -14
l98 -17 -1 -99 c-1 -54 -5 -211 -11 -349 -10 -250 -10 -250 12 -270 12 -12 24
-28 27 -36 3 -9 24 -30 47 -48 l40 -32 5 23 c3 13 7 97 10 188 4 91 13 239 21
330 8 91 15 191 15 224 0 56 1 58 23 51 12 -3 83 -10 157 -15 74 -5 153 -16
175 -24 56 -21 114 -20 160 4 31 16 42 17 54 8 9 -7 17 -13 19 -14 2 -1 -5
-26 -14 -55 -13 -39 -30 -65 -60 -92 -78 -69 -113 -137 -129 -249 -6 -40 -13
-50 -45 -72 -44 -29 -82 -92 -117 -196 -21 -61 -26 -95 -27 -180 -1 -92 2
-111 22 -151 14 -25 38 -54 55 -64 18 -10 58 -38 90 -62 37 -27 70 -43 87 -43
21 0 35 -9 52 -32 48 -69 141 -138 255 -189 180 -82 439 -176 613 -224 52 -15
158 -52 235 -82 159 -63 225 -83 275 -83 19 0 107 -18 195 -40 88 -22 204 -45
258 -50 54 -5 115 -14 135 -20 77 -20 196 -39 317 -51 147 -14 552 -7 605 10
19 7 91 18 160 27 69 8 152 22 185 30 33 9 83 20 112 24 29 5 67 13 85 19 46
15 143 40 145 37 2 -1 -8 -42 -21 -92 -63 -241 -67 -313 -23 -407 37 -82 82
-141 125 -164 53 -30 127 -37 185 -19 44 13 49 13 53 -2 22 -73 75 -127 174
-178 46 -23 68 -28 132 -28 49 -1 82 4 89 12 15 14 39 16 39 3 0 -12 69 -81
81 -81 5 0 9 -3 9 -8 0 -16 83 -42 137 -42 66 0 139 32 193 84 49 48 57 58 84
118 51 110 57 129 70 222 7 52 17 101 23 108 6 7 13 25 17 41 3 15 11 27 16
27 6 0 10 5 10 11 0 24 162 207 250 282 25 21 68 59 96 84 29 24 62 52 75 61
13 8 45 33 71 54 25 21 50 38 55 36 4 -1 44 2 88 6 96 10 215 59 288 120 78
65 132 174 139 280 l3 39 71 17 c116 27 174 61 277 165 135 135 186 249 173
385 -6 64 -4 70 21 102 15 18 30 35 33 38 31 30 113 179 143 260 53 145 61
366 18 515 l-20 70 44 66 c60 89 85 158 96 259 23 224 -56 571 -150 659 l-29
27 19 70 c29 103 35 258 14 374 -27 153 -93 302 -190 425 -30 39 -59 80 -65
92 -15 35 -147 169 -204 207 -69 45 -72 51 -79 117 -9 91 -81 240 -156 322
-65 71 -320 217 -378 217 -14 0 -21 4 -18 10 3 5 -5 15 -19 21 l-25 12 40 58
c40 60 150 288 208 433 33 81 70 223 95 362 55 298 49 560 -20 824 -25 99 -62
183 -124 286 l-37 61 51 11 c28 6 69 14 91 18 22 3 119 26 215 50 96 23 197
48 224 54 55 12 439 157 531 200 70 33 190 99 256 141 25 16 48 29 51 29 9 0
182 173 220 220 118 145 181 295 208 497 21 150 8 460 -24 598 -103 440 -320
783 -638 1008 -160 113 -520 307 -570 307 -8 0 -18 4 -23 9 -14 13 -263 80
-360 96 -289 49 -608 35 -890 -40 -148 -39 -244 -80 -380 -165 -38 -24 -110
-65 -158 -90 -49 -26 -98 -55 -110 -65 -12 -10 -37 -29 -57 -43 -113 -76 -238
-214 -318 -351 l-37 -63 -13 79 c-7 43 -19 112 -27 153 -7 41 -18 127 -24 190
-5 63 -17 138 -26 165 -9 28 -23 73 -32 100 -41 129 -191 425 -214 425 -5 0
-9 6 -9 13 0 14 -96 126 -139 162 -13 11 -31 27 -40 36 -50 45 -347 162 -507
199 -47 11 -138 25 -203 32 -103 10 -129 10 -212 -6 -99 -19 -234 -55 -309
-83 -115 -43 -299 -154 -378 -228 -24 -22 -49 -42 -55 -44 -7 -2 -17 -11 -24
-20 -17 -23 -22 -15 -106 149 -181 356 -268 451 -410 449 -34 0 -76 -5 -92
-10z m180 -97 c73 -51 153 -185 323 -539 11 -24 16 -45 12 -48 -14 -8 -116
-148 -140 -190 -80 -141 -123 -280 -155 -500 -35 -240 -29 -363 31 -575 60
-210 218 -450 382 -577 23 -18 32 -34 32 -54 0 -42 -69 -534 -77 -556 -5 -10
-19 -35 -33 -56 -29 -43 -9 -43 -235 -2 -200 36 -476 111 -570 155 -11 5 -42
19 -70 31 -86 38 -99 44 -137 68 l-38 23 -1 141 c0 78 -4 216 -8 307 -4 91 -6
167 -4 170 8 9 72 -34 156 -105 49 -42 93 -73 98 -70 14 9 11 40 -7 86 -20 47
-115 132 -201 176 -32 17 -55 36 -58 48 -2 11 -12 148 -21 305 -40 675 23 989
292 1456 119 208 188 290 275 329 45 20 104 11 154 -23z m1534 -381 c288 -63
504 -248 665 -568 61 -122 102 -253 147 -463 19 -87 19 -448 0 -550 -19 -105
-64 -218 -124 -308 -51 -76 -216 -250 -269 -285 -31 -20 -38 -65 -14 -89 15
-15 419 -153 561 -191 50 -14 124 -34 165 -45 108 -30 315 -66 335 -58 19 7
18 10 -10 111 -92 331 -110 440 -110 675 0 121 5 185 17 240 18 76 75 210 90
210 4 0 8 7 8 15 0 8 4 15 9 15 5 0 12 8 15 18 3 9 21 33 40 54 18 20 43 50
55 67 25 34 41 34 35 -2 -4 -20 -4 -20 5 -2 5 12 5 25 -1 32 -7 8 1 23 26 48
36 36 60 40 49 7 -5 -14 -3 -15 7 -5 11 10 11 15 0 29 -12 14 -11 18 7 32 12
10 49 38 82 65 37 29 62 43 66 37 10 -17 -26 -51 -46 -45 -9 3 -20 1 -24 -4
-3 -6 0 -8 8 -5 8 3 18 1 22 -5 3 -6 11 -11 17 -11 6 0 9 3 5 6 -3 3 3 14 14
25 13 13 17 27 13 44 -4 17 -2 25 6 25 7 0 27 11 44 24 27 20 107 60 216 109
250 110 788 95 1175 -33 170 -57 470 -221 618 -339 248 -198 431 -517 494
-864 25 -135 24 -435 -1 -542 -10 -44 -20 -83 -22 -87 -2 -3 -21 -2 -41 4 -44
12 -143 2 -143 -16 0 -22 57 -46 109 -46 28 0 51 -4 51 -8 0 -14 -75 -125 -96
-144 -19 -17 -22 -16 -77 17 -53 32 -117 47 -117 27 0 -18 35 -55 80 -85 46
-31 47 -33 31 -53 -21 -27 -145 -120 -184 -140 -18 -9 -47 -28 -65 -41 l-34
-25 -31 29 c-50 46 -102 83 -119 83 -30 0 -30 -32 -1 -63 35 -37 74 -57 110
-57 25 0 21 -5 -35 -40 -34 -22 -67 -40 -72 -40 -6 0 -88 -34 -182 -76 -145
-64 -363 -154 -371 -154 -1 0 -3 26 -4 56 -1 55 -15 80 -36 67 -5 -3 -7 -36
-5 -74 l5 -68 -126 -30 c-118 -28 -246 -54 -387 -80 -33 -6 -99 -11 -147 -11
-50 0 -89 -4 -92 -11 -8 -11 22 -49 38 -49 24 0 96 -57 113 -89 10 -20 25 -44
33 -53 20 -25 10 -23 -110 17 -169 58 -361 114 -530 155 -153 37 -161 40 -209
83 -62 56 -218 137 -338 176 -150 49 -394 109 -591 145 -443 81 -566 128 -801
301 -188 139 -367 209 -650 255 -69 11 -147 26 -173 33 l-48 12 38 45 c122
146 177 190 286 230 31 12 57 26 57 31 0 6 4 7 10 4 6 -3 7 1 4 9 -4 11 0 16
10 16 9 0 16 4 16 8 0 5 11 14 24 21 21 12 46 49 46 69 0 9 -69 29 -130 37
-25 3 -52 10 -60 16 -15 10 -11 10 118 -7 38 -5 52 -3 52 6 0 8 -12 10 -41 5
-27 -5 -39 -4 -35 3 4 7 -20 9 -69 8 -52 -2 -78 1 -86 10 -6 7 -16 11 -23 8
-12 -5 -65 20 -109 51 -14 10 -15 14 -5 18 7 3 2 5 -12 4 -21 -2 -25 2 -22 23
1 18 0 21 -7 11 -8 -12 -16 -9 -44 15 -19 16 -63 49 -97 74 -69 51 -200 184
-200 205 0 12 -16 48 -42 95 -56 103 -60 114 -54 159 3 31 2 38 -3 21 -6 -19
-10 -21 -14 -10 -9 22 -49 200 -53 235 l-3 30 8 -30 c8 -28 9 -28 10 14 1 36
-2 42 -15 37 -15 -6 -16 8 -12 152 3 88 10 167 16 177 7 11 23 56 37 100 27
86 39 116 62 155 8 14 22 43 33 65 21 46 65 89 80 80 5 -3 7 0 5 7 -6 15 29
63 90 123 103 101 328 214 545 272 115 31 134 33 235 29 61 -3 152 -14 204
-25z m-3530 -190 c148 -75 310 -285 562 -725 60 -104 109 -194 109 -200 0 -6
-18 -19 -40 -30 -50 -24 -176 -149 -203 -201 -11 -22 -28 -65 -37 -95 l-16
-54 -23 37 c-12 20 -54 65 -92 101 -53 49 -84 69 -131 85 -63 21 -118 27 -118
13 0 -4 58 -67 129 -139 113 -114 135 -143 170 -215 51 -106 57 -131 37 -151
-15 -14 -25 -12 -118 20 -57 19 -137 41 -178 50 -98 19 -267 19 -351 -1 -83
-19 -197 -73 -202 -95 -9 -43 -29 134 -34 300 -9 306 16 544 88 839 72 295
108 382 186 445 26 22 50 44 52 49 2 4 36 6 75 4 54 -4 86 -13 135 -37z m755
-1111 c37 -92 96 -290 96 -320 0 -13 -12 -19 -52 -24 -28 -4 -60 -12 -70 -17
-14 -7 -31 -6 -63 7 -30 11 -62 15 -100 12 -71 -6 -79 6 -79 117 -1 67 3 88
26 130 37 71 157 185 194 185 7 0 28 -41 48 -90z m404 -454 c35 -8 47 -17 53
-36 11 -38 28 -265 34 -448 l5 -163 -68 49 c-141 98 -132 84 -158 250 -20 126
-54 357 -54 370 0 7 139 -9 188 -22z m-284 -8 c12 -55 55 -363 51 -366 -2 -3
-17 10 -32 29 -24 28 -28 42 -31 108 -3 85 -13 125 -48 190 -13 24 -21 47 -18
52 3 5 21 9 39 9 28 0 36 -4 39 -22z m-769 -71 c129 -36 171 -53 167 -68 -17
-69 -23 -135 -17 -195 5 -55 3 -80 -10 -110 -106 -249 -161 -762 -121 -1114
24 -206 100 -570 126 -605 4 -5 11 -26 15 -45 14 -66 127 -355 185 -470 128
-258 301 -492 629 -850 47 -52 106 -120 130 -150 64 -79 176 -188 251 -243 73
-54 78 -58 140 -108 25 -20 75 -59 113 -87 l68 -50 -33 -10 c-18 -6 -63 -13
-99 -16 -144 -13 -289 -90 -371 -195 -19 -26 -36 -36 -69 -41 -24 -4 -56 -10
-70 -14 -22 -6 -28 -3 -37 21 -6 15 -27 73 -48 128 -116 313 -150 396 -287
700 -117 260 -210 468 -270 605 -49 114 -180 442 -220 555 -14 39 -55 147 -92
240 -36 94 -103 278 -149 410 -93 267 -172 487 -221 615 -55 143 -125 355
-155 465 -4 17 -30 111 -58 210 -51 184 -85 325 -97 405 -6 37 -5 43 6 33 10
-8 40 -8 114 2 154 21 368 13 480 -18z m4485 -281 c6 -27 15 -57 21 -67 8 -15
6 -19 -8 -19 -47 0 -206 47 -261 76 -2 1 22 35 53 75 30 41 74 112 98 159 l42
85 22 -130 c12 -71 26 -152 33 -179z m-1941 -49 l93 -48 -84 -87 c-46 -48 -97
-103 -112 -122 l-28 -35 6 70 c3 39 9 116 12 173 4 56 10 101 13 100 3 -2 48
-25 100 -51z m-1683 -157 c24 -25 76 -67 116 -93 40 -26 97 -65 126 -85 29
-21 70 -47 90 -57 20 -11 84 -46 142 -79 195 -111 444 -194 808 -272 26 -5 27
-14 8 -80 -39 -133 -50 -229 -51 -424 l0 -195 41 -117 c50 -141 109 -234 204
-321 164 -149 379 -232 636 -244 130 -7 217 8 393 67 64 21 129 41 144 44 75
17 152 -34 176 -116 88 -298 347 -488 691 -505 223 -11 346 30 508 170 145
126 234 273 293 486 12 42 25 81 29 86 5 6 11 27 15 48 6 30 11 37 24 31 9 -4
36 -14 61 -22 25 -9 47 -19 48 -24 2 -4 11 -8 21 -8 9 0 55 -13 101 -30 47
-16 93 -30 103 -30 9 0 17 -4 17 -8 0 -4 17 -14 38 -21 20 -8 73 -31 117 -51
128 -60 174 -80 179 -80 17 0 145 -64 141 -70 -3 -5 3 -6 14 -3 10 3 32 -2 49
-11 17 -9 40 -16 50 -16 14 0 21 -9 24 -30 3 -17 0 -30 -6 -31 -6 0 -5 -3 2
-6 27 -11 5 -392 -32 -553 -22 -93 -82 -245 -162 -408 -75 -151 -77 -154 -211
-297 -75 -80 -138 -145 -141 -145 -2 0 -26 20 -53 44 -45 41 -130 82 -143 69
-10 -10 36 -86 80 -133 l44 -47 -105 -78 -106 -77 -45 39 c-78 66 -88 73 -114
75 -16 2 -25 -3 -28 -15 -5 -23 33 -100 64 -129 13 -13 24 -26 24 -30 0 -12
-242 -142 -325 -174 l-80 -31 -13 74 c-13 75 -32 124 -59 151 -13 13 -17 13
-31 -2 -13 -13 -16 -30 -13 -79 2 -34 4 -88 5 -121 l1 -59 -45 -14 c-86 -26
-256 -62 -370 -78 -96 -13 -432 -24 -505 -16 -11 1 -72 6 -135 12 -139 13
-352 39 -362 45 -3 2 -28 9 -55 15 -272 57 -274 58 -328 75 -60 20 -154 62
-175 79 -8 7 -28 17 -45 23 -27 9 -25 10 27 10 32 0 62 3 67 6 5 3 41 10 81
16 84 12 235 61 300 98 25 14 83 51 130 82 47 32 103 67 125 78 112 56 337
341 480 609 l40 75 95 2 c146 4 195 35 176 111 -10 41 -42 49 -137 36 -132
-18 -153 -15 -242 29 -131 66 -153 89 -229 242 -38 74 -68 141 -68 149 0 20
-37 41 -60 34 -12 -4 -26 -29 -41 -73 -12 -37 -30 -84 -40 -104 -35 -69 -27
-95 49 -165 37 -35 102 -91 145 -125 75 -60 77 -63 77 -105 0 -35 -9 -57 -40
-105 -23 -33 -48 -74 -56 -91 -19 -36 -253 -266 -294 -288 -16 -9 -44 -29 -62
-45 -18 -16 -67 -51 -108 -78 -41 -27 -87 -58 -102 -68 -15 -10 -36 -18 -46
-18 -27 0 -263 -58 -284 -70 -30 -17 -190 -23 -288 -11 -115 14 -200 33 -200
44 0 4 -5 5 -11 1 -6 -3 -21 -2 -32 4 -85 39 -181 75 -204 75 -16 0 -22 2 -15
4 21 8 13 25 -8 18 -27 -9 -98 34 -78 46 9 7 8 9 -7 7 -34 -2 -56 2 -51 10 2
4 -9 14 -25 21 -33 14 -34 36 -2 36 12 0 24 3 27 6 6 6 -42 4 -59 -2 -5 -2
-26 8 -45 22 -19 14 -55 37 -80 50 -25 13 -51 30 -58 37 -7 6 -18 12 -23 12
-11 0 -166 101 -194 127 -11 10 -39 35 -62 55 -23 20 -39 39 -35 42 3 3 0 6
-6 6 -19 0 -82 61 -75 73 3 5 1 7 -4 4 -12 -8 -49 30 -40 40 4 3 7 2 7 -4 0
-6 6 -13 13 -16 7 -3 13 3 13 13 0 12 -7 16 -27 14 -21 -3 -33 4 -52 29 -14
18 -48 57 -76 87 -27 30 -50 61 -51 68 0 6 -4 12 -8 12 -5 0 -21 18 -38 41
-16 22 -34 46 -41 53 -33 37 -103 152 -98 164 2 7 1 11 -4 8 -4 -3 -29 19 -54
49 -45 51 -58 73 -37 60 6 -3 10 -1 10 5 0 7 -7 10 -15 7 -20 -8 -77 71 -70
98 3 11 2 14 -1 8 -8 -19 -22 -16 -29 7 -3 11 -12 26 -18 32 -7 7 -36 61 -65
120 -38 77 -52 114 -47 130 4 15 3 18 -3 10 -10 -15 -21 6 -46 93 -10 33 -38
121 -62 195 -53 157 -94 310 -124 465 -12 61 -26 128 -31 150 -14 64 -9 528 7
604 15 71 76 334 79 339 1 1 23 -8 49 -21 63 -32 168 -36 228 -9 67 29 124
105 162 217 7 18 11 16 48 -25 23 -25 61 -65 84 -90z m2074 -535 c137 -40 252
-90 338 -147 40 -26 77 -48 82 -48 6 0 10 -4 10 -8 0 -5 26 -26 58 -47 31 -21
68 -45 82 -55 25 -16 88 -47 168 -81 44 -19 228 -71 337 -95 53 -11 115 -23
340 -65 164 -31 332 -82 418 -127 168 -89 212 -135 248 -256 18 -58 20 -86 15
-153 -6 -82 -45 -213 -72 -244 -8 -8 -14 -26 -14 -38 0 -12 -21 -63 -47 -114
-137 -267 -386 -358 -702 -255 -74 24 -93 33 -146 72 -52 38 -150 149 -136
154 17 6 13 23 -5 20 -20 -4 -27 7 -66 112 -73 196 -214 259 -434 194 -49 -15
-100 -28 -114 -30 -14 -2 -61 -13 -105 -24 -44 -11 -105 -23 -135 -26 -67 -7
-248 19 -292 42 -179 92 -399 301 -446 424 -52 134 -30 487 38 633 18 38 37
58 98 99 118 79 154 89 302 83 71 -2 149 -11 180 -20z m-3520 -3051 c49 -129
61 -185 51 -239 l-7 -40 -17 32 c-9 17 -26 75 -37 130 -12 54 -30 135 -40 180
-11 45 -20 85 -20 90 1 16 30 -46 70 -153z m477 23 c-6 -113 -12 -147 -27
-147 -16 0 -19 64 -5 131 8 39 15 84 15 100 0 16 5 29 12 29 8 0 9 -31 5 -113z
m6265 0 c14 -3 64 -24 110 -48 106 -55 224 -168 265 -255 26 -55 28 -68 27
-164 -1 -58 -7 -117 -12 -131 -6 -15 -31 -44 -57 -65 -25 -22 -73 -62 -105
-90 -32 -27 -73 -55 -92 -60 -54 -17 -254 -169 -559 -427 -190 -160 -253 -207
-288 -217 -29 -8 -41 -18 -58 -52 -18 -38 -63 -116 -158 -271 -17 -27 -56 -90
-89 -140 -32 -51 -74 -128 -93 -171 -54 -127 -81 -168 -143 -214 -31 -24 -68
-53 -81 -65 -13 -12 -55 -49 -94 -81 -64 -54 -99 -84 -265 -232 -30 -27 -73
-63 -95 -79 -83 -62 -201 -161 -215 -180 -8 -11 -27 -33 -42 -48 -15 -16 -28
-32 -28 -37 0 -13 -48 -40 -62 -35 -18 7 -34 -6 -297 -244 -68 -61 -125 -110
-128 -107 -2 2 3 109 11 237 9 129 20 302 26 384 5 83 16 211 24 285 34 319
44 639 22 706 -5 15 0 30 18 51 38 45 74 123 97 210 25 91 35 265 21 340 l-9
53 31 4 c17 3 65 8 106 11 200 15 689 166 825 255 22 14 58 35 80 45 51 26
281 181 333 226 12 11 25 33 29 50 4 22 16 35 44 50 182 92 445 279 588 415
l106 102 90 -3 c50 -2 102 -6 117 -8z m-4469 -202 c33 -36 73 -82 89 -103 112
-140 481 -361 771 -461 70 -25 127 -47 127 -50 0 -2 -22 -48 -49 -100 -90
-177 -136 -350 -130 -489 3 -62 9 -84 28 -111 32 -45 101 -75 153 -67 l38 6
-26 -42 c-23 -35 -124 -322 -124 -350 0 -13 -159 -337 -217 -443 -82 -148
-168 -297 -195 -340 -14 -22 -46 -78 -73 -125 -47 -84 -134 -209 -146 -210 -4
0 -12 28 -19 62 -6 33 -32 123 -56 198 -24 76 -44 142 -44 146 0 5 21 8 47 6
102 -6 93 33 -18 72 l-64 23 -37 109 c-62 180 -150 416 -170 457 -17 34 -20
76 -29 320 -12 371 -26 584 -44 682 -23 122 -34 317 -18 311 21 -8 15 12 -16
57 -30 45 -167 274 -190 320 -14 26 -13 29 20 63 41 43 89 69 164 88 30 8 63
19 72 25 10 6 35 11 57 11 35 0 44 -6 99 -65z m-2454 -360 c24 -277 24 -253
-1 -261 -13 -4 -26 -11 -30 -17 -10 -16 -14 12 -37 248 -18 189 -26 298 -22
332 0 6 16 13 34 15 l32 3 7 -100 c4 -55 12 -154 17 -220z m819 229 c3 -2 -5
-113 -23 -329 -2 -27 -4 -68 -5 -90 0 -35 -5 -43 -31 -59 l-31 -18 6 163 c4
90 9 205 12 256 l6 92 31 -6 c18 -3 33 -7 35 -9z m-786 -645 c3 -34 0 -44 -19
-56 -30 -20 -43 -9 -43 36 0 29 5 40 23 49 33 16 35 15 39 -29z m748 -43 c0
-39 -3 -44 -25 -48 -22 -5 -25 -2 -25 23 0 19 6 30 20 34 11 3 20 13 20 21 0
8 2 14 5 14 3 0 5 -20 5 -44z m-730 -160 c0 -7 3 -34 6 -60 l7 -46 -32 0 c-30
0 -31 1 -31 46 0 33 5 51 18 60 22 17 32 17 32 0z m720 -71 c0 -31 -3 -35 -25
-35 -20 0 -25 5 -25 25 0 21 21 44 43 45 4 0 7 -16 7 -35z m-770 -212 c-117
-15 -203 -54 -226 -101 -14 -31 -15 -45 -6 -95 6 -33 9 -64 6 -68 -3 -5 -30
-9 -61 -9 -83 0 -118 -43 -79 -96 13 -17 31 -20 168 -24 176 -6 209 -18 241
-83 24 -48 11 -93 -41 -138 -92 -81 -207 -97 -379 -54 -216 54 -262 124 -217
328 20 87 75 204 112 235 76 65 188 101 342 111 100 6 202 1 140 -6z m247 1
c-3 -3 -12 -4 -19 -1 -8 3 -5 6 6 6 11 1 17 -2 13 -5z m303 -16 c0 -7 7 -71
15 -143 27 -237 35 -308 55 -540 37 -413 60 -659 66 -693 6 -33 6 -33 -27 -28
-66 11 -243 36 -257 36 -9 0 -1 15 21 39 47 52 61 99 53 181 -9 98 -30 158
-71 200 l-35 36 38 41 c45 47 47 56 63 248 16 187 6 409 -20 496 -25 79 -49
103 -121 122 l-55 15 138 1 c101 1 137 -2 137 -11z m-243 -72 c79 -25 86 -44
91 -247 4 -175 -11 -423 -29 -463 -12 -26 -58 -51 -111 -61 l-34 -6 -13 53
c-13 50 -56 108 -89 119 -9 3 -5 19 17 59 52 94 38 203 -35 276 -44 44 -101
68 -191 79 -29 4 -55 10 -58 15 -2 4 -8 39 -11 78 l-7 71 29 11 c106 41 336
49 441 16z m-226 -709 c61 -59 42 -214 -30 -252 -49 -25 -168 -38 -296 -32
-179 9 -226 31 -275 128 -35 68 -39 127 -12 152 17 15 24 15 93 1 105 -22 314
-15 384 13 63 26 103 23 136 -10z m219 -169 c0 -7 16 -33 35 -57 19 -24 35
-47 35 -50 1 -3 5 -37 9 -74 7 -53 6 -77 -5 -102 -31 -74 -240 -178 -384 -191
-87 -8 -148 8 -188 50 -27 27 -111 170 -112 188 0 4 57 6 128 6 236 -3 353 47
392 169 21 63 29 73 60 73 17 0 30 -5 30 -12z m5276 -1913 c315 -180 503 -316
728 -525 4 -5 -16 -37 -45 -72 -88 -103 -127 -173 -184 -328 -7 -19 -31 -80
-53 -135 -22 -55 -45 -117 -52 -137 -26 -86 -120 -168 -191 -168 -40 0 -93 30
-110 61 -20 38 8 245 46 339 50 125 135 375 135 399 0 91 -65 80 -115 -19 -33
-65 -117 -295 -134 -365 -9 -38 -25 -83 -36 -100 -15 -22 -21 -50 -23 -117
l-4 -88 -71 0 c-48 0 -86 7 -112 19 -22 10 -45 16 -51 14 -18 -6 -74 114 -74
158 0 90 30 200 107 397 56 145 61 171 38 188 -15 11 -23 10 -54 -5 -20 -11
-44 -28 -53 -38 -25 -27 -80 -143 -145 -303 -84 -206 -89 -212 -149 -190 -59
21 -74 33 -80 66 -10 54 39 310 90 473 32 102 148 343 239 499 63 107 75 122
94 117 12 -3 129 -66 259 -140z"/>
<path d="M4998 11253 c-24 -6 -23 -23 2 -23 11 0 20 7 20 15 0 8 -1 14 -2 14
-2 -1 -11 -3 -20 -6z"/>
<path d="M4675 11240 c-7 -12 2 -30 16 -30 12 0 12 27 0 35 -5 3 -12 1 -16 -5z"/>
<path d="M4954 10861 c4 -5 0 -12 -6 -14 -8 -3 -6 -6 5 -6 9 -1 17 6 17 14 0
8 -5 15 -11 15 -5 0 -8 -4 -5 -9z"/>
<path d="M4703 10845 c2 -5 10 -10 17 -10 7 0 15 5 17 10 2 6 -6 11 -17 11
-11 0 -19 -5 -17 -11z"/>
<path d="M5821 11333 c-79 -32 -137 -87 -147 -140 -4 -21 -2 -68 4 -106 7 -37
12 -97 12 -133 0 -72 41 -317 64 -380 33 -91 128 -290 154 -323 16 -20 41 -60
55 -88 15 -29 53 -75 89 -108 104 -94 238 -145 384 -145 97 0 160 17 228 63
28 18 70 46 93 60 84 53 154 164 199 314 22 75 27 113 31 255 8 239 -16 371
-99 544 -93 196 -286 271 -425 166 -30 -22 -38 -24 -103 -17 -64 6 -75 5 -120
-19 l-50 -26 -53 40 c-101 76 -200 89 -316 43z m268 -193 l16 -24 -32 23 c-39
29 -58 63 -21 39 12 -8 29 -25 37 -38z m289 -377 c-4 -22 -22 -20 -26 1 -2 10
3 16 13 16 10 0 15 -7 13 -17z"/>
<path d="M5402 11320 c0 -14 2 -19 5 -12 2 6 2 18 0 25 -3 6 -5 1 -5 -13z"/>
<path d="M5370 11298 c-5 -33 -7 -78 -3 -63 3 11 12 25 21 31 15 11 9 34 -9
34 -5 0 -9 -1 -9 -2z"/>
<path d="M5305 11179 c-4 -6 -5 -12 -2 -15 2 -3 7 2 10 11 7 17 1 20 -8 4z"/>
<path d="M5330 11170 c0 -5 5 -10 10 -10 6 0 10 5 10 10 0 6 -4 10 -10 10 -5
0 -10 -4 -10 -10z"/>
<path d="M5292 11130 c0 -14 2 -19 5 -12 2 6 2 18 0 25 -3 6 -5 1 -5 -13z"/>
<path d="M5322 11105 c0 -16 2 -22 5 -12 2 9 2 23 0 30 -3 6 -5 -1 -5 -18z"/>
<path d="M5272 11075 c0 -16 2 -22 5 -12 2 9 2 23 0 30 -3 6 -5 -1 -5 -18z"/>
<path d="M5301 11084 c0 -11 3 -14 6 -6 3 7 2 16 -1 19 -3 4 -6 -2 -5 -13z"/>
<path d="M5245 11019 c-4 -6 -5 -12 -2 -15 2 -3 7 2 10 11 7 17 1 20 -8 4z"/>
<path d="M5281 10954 c0 -11 3 -14 6 -6 3 7 2 16 -1 19 -3 4 -6 -2 -5 -13z"/>
<path d="M8505 10910 c-4 -6 -16 -8 -27 -4 -14 4 -18 2 -14 -5 4 -6 13 -11 19
-11 18 0 42 18 35 25 -3 4 -9 1 -13 -5z"/>
<path d="M5222 10880 c0 -14 2 -19 5 -12 2 6 2 18 0 25 -3 6 -5 1 -5 -13z"/>
<path d="M8435 10890 c-3 -5 -3 -15 1 -21 4 -7 0 -9 -12 -5 -11 3 -25 2 -33
-3 -20 -13 40 -8 62 5 16 9 16 12 4 23 -10 8 -17 9 -22 1z"/>
<path d="M8260 10760 c-9 -16 -8 -18 5 -14 8 4 15 12 15 20 0 20 -7 17 -20 -6z"/>
<path d="M8295 10750 c-3 -5 -1 -10 4 -10 6 0 11 5 11 10 0 6 -2 10 -4 10 -3
0 -8 -4 -11 -10z"/>
<path d="M8270 10722 c0 -7 -10 -13 -22 -13 -19 -1 -20 -2 -4 -6 20 -5 44 12
33 24 -4 3 -7 1 -7 -5z"/>
<path d="M8155 10660 c-3 -5 -1 -10 4 -10 6 0 11 5 11 10 0 6 -2 10 -4 10 -3
0 -8 -4 -11 -10z"/>
<path d="M5291 10634 c0 -11 3 -14 6 -6 3 7 2 16 -1 19 -3 4 -6 -2 -5 -13z"/>
<path d="M8215 10630 c-3 -5 -1 -10 4 -10 6 0 11 5 11 10 0 6 -2 10 -4 10 -3
0 -8 -4 -11 -10z"/>
<path d="M9478 10550 c-26 -4 -53 -12 -59 -16 -7 -4 -69 -8 -138 -8 -109 -1
-132 -4 -172 -24 -25 -12 -64 -22 -86 -22 -36 0 -49 -7 -96 -50 -72 -66 -149
-183 -240 -366 -195 -395 -243 -587 -180 -712 58 -114 118 -161 303 -235 63
-25 153 -62 200 -82 47 -19 132 -50 190 -68 98 -30 114 -32 240 -30 289 3 426
50 575 198 164 162 230 314 242 555 7 144 -6 260 -43 388 -75 260 -203 392
-441 452 -91 23 -228 33 -295 20z m187 -230 c20 -9 20 -9 0 -9 -11 -1 -30 -8
-42 -16 -33 -23 -104 -1 -87 27 7 11 103 9 129 -2z m174 -55 c54 -34 63 -53
12 -24 -40 22 -71 49 -57 49 4 0 24 -11 45 -25z m-430 -145 c0 -10 -3 -8 -9 5
-12 27 -12 43 0 25 5 -8 9 -22 9 -30z"/>
<path d="M8130 10500 c0 -5 5 -10 10 -10 6 0 10 5 10 10 0 6 -4 10 -10 10 -5
0 -10 -4 -10 -10z"/>
<path d="M8007 10493 c-12 -11 -7 -19 12 -19 11 0 17 5 14 13 -6 14 -16 17
-26 6z"/>
<path d="M5337 10435 c3 -27 9 -52 13 -55 4 -3 10 -14 13 -25 4 -19 5 -18 6 2
0 12 -3 25 -9 28 -5 3 -10 18 -11 33 0 15 -5 36 -10 47 -6 13 -7 4 -2 -30z"/>
<path d="M5322 10360 c0 -14 2 -19 5 -12 2 6 2 18 0 25 -3 6 -5 1 -5 -13z"/>
<path d="M5299 10332 c-3 -20 -2 -29 4 -23 5 5 7 19 5 32 -3 20 -5 19 -9 -9z"/>
<path d="M7926 10351 c-4 -7 -5 -15 -2 -18 9 -9 19 4 14 18 -4 11 -6 11 -12 0z"/>
<path d="M7905 10310 c-3 -5 -1 -10 4 -10 6 0 11 5 11 10 0 6 -2 10 -4 10 -3
0 -8 -4 -11 -10z"/>
<path d="M8066 10305 c-9 -26 -7 -32 5 -12 6 10 9 21 6 23 -2 3 -7 -2 -11 -11z"/>
<path d="M5396 10297 c3 -10 9 -15 12 -12 3 3 0 11 -7 18 -10 9 -11 8 -5 -6z"/>
<path d="M5291 10264 c-1 -11 6 -29 15 -40 8 -10 12 -13 9 -6 -4 8 -11 26 -15
40 -7 22 -8 23 -9 6z"/>
<path d="M5335 10210 c3 -5 10 -10 16 -10 5 0 9 5 9 10 0 6 -7 10 -16 10 -8 0
-12 -4 -9 -10z"/>
<path d="M7871 10204 c0 -11 3 -14 6 -6 3 7 2 16 -1 19 -3 4 -6 -2 -5 -13z"/>
<path d="M5465 10170 c3 -5 8 -10 11 -10 2 0 4 5 4 10 0 6 -5 10 -11 10 -5 0
-7 -4 -4 -10z"/>
<path d="M5420 10156 c0 -9 5 -16 10 -16 6 0 10 4 10 9 0 6 -4 13 -10 16 -5 3
-10 -1 -10 -9z"/>
<path d="M5380 10072 c1 -13 29 -44 37 -41 4 2 -2 14 -14 26 -13 12 -23 19
-23 15z"/>
<path d="M7851 10044 c0 -11 3 -14 6 -6 3 7 2 16 -1 19 -3 4 -6 -2 -5 -13z"/>
<path d="M7980 10044 c0 -8 5 -12 10 -9 6 3 10 10 10 16 0 5 -4 9 -10 9 -5 0
-10 -7 -10 -16z"/>
<path d="M8012 10040 c0 -14 2 -19 5 -12 2 6 2 18 0 25 -3 6 -5 1 -5 -13z"/>
<path d="M5451 9994 c0 -11 3 -14 6 -6 3 7 2 16 -1 19 -3 4 -6 -2 -5 -13z"/>
<path d="M5665 9970 c3 -5 8 -10 11 -10 2 0 4 5 4 10 0 6 -5 10 -11 10 -5 0
-7 -4 -4 -10z"/>
<path d="M7853 9935 c0 -22 2 -30 4 -17 2 12 2 30 0 40 -3 9 -5 -1 -4 -23z"/>
<path d="M5488 9953 c7 -3 16 -2 19 1 4 3 -2 6 -13 5 -11 0 -14 -3 -6 -6z"/>
<path d="M5640 9930 c0 -5 7 -10 16 -10 8 0 12 5 9 10 -3 6 -10 10 -16 10 -5
0 -9 -4 -9 -10z"/>
<path d="M5531 9914 c0 -11 3 -14 6 -6 3 7 2 16 -1 19 -3 4 -6 -2 -5 -13z"/>
<path d="M5800 9880 c0 -5 5 -10 11 -10 5 0 7 5 4 10 -3 6 -8 10 -11 10 -2 0
-4 -4 -4 -10z"/>
<path d="M5590 9876 c0 -2 7 -9 15 -16 9 -7 15 -8 15 -2 0 5 -7 12 -15 16 -8
3 -15 4 -15 2z"/>
<path d="M5843 9823 c9 -2 23 -2 30 0 6 3 -1 5 -18 5 -16 0 -22 -2 -12 -5z"/>
<path d="M5938 9823 c7 -3 16 -2 19 1 4 3 -2 6 -13 5 -11 0 -14 -3 -6 -6z"/>
<path d="M5660 9816 c0 -2 7 -9 15 -16 9 -7 15 -8 15 -2 0 5 -7 12 -15 16 -8
3 -15 4 -15 2z"/>
<path d="M7872 9800 c0 -14 2 -19 5 -12 2 6 2 18 0 25 -3 6 -5 1 -5 -13z"/>
<path d="M8012 9760 c0 -14 2 -19 5 -12 2 6 2 18 0 25 -3 6 -5 1 -5 -13z"/>
<path d="M5780 9730 c-9 -6 -10 -10 -3 -10 6 0 15 5 18 10 8 12 4 12 -15 0z"/>
<path d="M5818 9733 c6 -2 18 -2 25 0 6 3 1 5 -13 5 -14 0 -19 -2 -12 -5z"/>
<path d="M7871 9724 c0 -11 3 -14 6 -6 3 7 2 16 -1 19 -3 4 -6 -2 -5 -13z"/>
<path d="M6080 9690 c0 -19 3 -21 12 -12 9 9 9 15 0 24 -9 9 -12 7 -12 -12z"/>
<path d="M7912 9560 c0 -14 2 -19 5 -12 2 6 2 18 0 25 -3 6 -5 1 -5 -13z"/>
<path d="M7941 9544 c0 -11 3 -14 6 -6 3 7 2 16 -1 19 -3 4 -6 -2 -5 -13z"/>
<path d="M7931 9454 c0 -11 3 -14 6 -6 3 7 2 16 -1 19 -3 4 -6 -2 -5 -13z"/>
<path d="M7953 9375 c0 -27 2 -38 4 -22 2 15 2 37 0 50 -2 12 -4 0 -4 -28z"/>
<path d="M8021 9244 c0 -11 3 -14 6 -6 3 7 2 16 -1 19 -3 4 -6 -2 -5 -13z"/>
<path d="M8201 9188 c0 -9 -7 -18 -13 -21 -7 -2 -10 -8 -5 -12 11 -13 29 11
24 31 -4 16 -5 16 -6 2z"/>
<path d="M8118 9173 c7 -3 16 -2 19 1 4 3 -2 6 -13 5 -11 0 -14 -3 -6 -6z"/>
<path d="M3072 10764 c3 -17 21 -21 26 -6 1 5 -4 12 -13 16 -11 4 -15 1 -13
-10z"/>
<path d="M2742 10649 c2 -6 8 -10 13 -10 5 0 11 4 13 10 2 6 -4 11 -13 11 -9
0 -15 -5 -13 -11z"/>
<path d="M3271 10433 c-1 -18 4 -23 23 -23 19 0 23 4 19 20 -3 11 -9 20 -14
20 -5 0 -6 -7 -3 -15 4 -8 1 -15 -4 -15 -6 0 -13 8 -15 18 -4 13 -5 11 -6 -5z"/>
<path d="M2860 10270 c0 -5 7 -10 15 -10 8 0 15 5 15 10 0 6 -7 10 -15 10 -8
0 -15 -4 -15 -10z"/>
<path d="M3372 9320 c0 -14 2 -19 5 -12 2 6 2 18 0 25 -3 6 -5 1 -5 -13z"/>
<path d="M3429 9297 c6 -8 8 -17 4 -20 -3 -4 -1 -7 5 -7 7 0 12 9 12 20 0 12
-7 20 -16 20 -13 0 -14 -3 -5 -13z"/>
<path d="M3355 9260 c-4 -12 -5 -24 -2 -27 3 -2 8 5 12 17 4 12 5 24 2 27 -3
2 -8 -5 -12 -17z"/>
<path d="M3377 9223 c-3 -5 -1 -17 4 -28 7 -17 8 -17 8 8 1 27 -4 34 -12 20z"/>
<path d="M3442 9148 c-1 -20 -5 -45 -8 -55 -5 -17 -5 -17 6 0 6 9 9 34 7 55
l-4 37 -1 -37z"/>
<path d="M3401 9034 c0 -11 3 -14 6 -6 3 7 2 16 -1 19 -3 4 -6 -2 -5 -13z"/>
<path d="M3312 9015 c0 -16 2 -22 5 -12 2 9 2 23 0 30 -3 6 -5 -1 -5 -18z"/>
<path d="M3400 8951 c0 -6 4 -13 10 -16 6 -3 7 1 4 9 -7 18 -14 21 -14 7z"/>
<path d="M3298 8775 c4 -170 10 -191 10 -40 0 66 -3 131 -7 145 -4 14 -5 -33
-3 -105z"/>
<path d="M3788 8859 c-28 -16 -23 -58 8 -69 33 -13 80 -13 105 0 21 12 25 50
7 68 -15 15 -96 15 -120 1z"/>
<path d="M3401 8844 c0 -11 3 -14 6 -6 3 7 2 16 -1 19 -3 4 -6 -2 -5 -13z"/>
<path d="M3301 8519 c0 -13 4 -33 9 -44 7 -14 8 -8 3 20 -7 46 -13 59 -12 24z"/>
<path d="M3292 8405 c0 -16 2 -22 5 -12 2 9 2 23 0 30 -3 6 -5 -1 -5 -18z"/>
<path d="M3401 8394 c0 -11 3 -14 6 -6 3 7 2 16 -1 19 -3 4 -6 -2 -5 -13z"/>
<path d="M3311 8364 c0 -11 3 -14 6 -6 3 7 2 16 -1 19 -3 4 -6 -2 -5 -13z"/>
<path d="M3426 8172 c-4 -13 -5 -26 -2 -29 10 -11 18 4 14 29 l-4 23 -8 -23z"/>
<path d="M3362 8165 c0 -11 3 -29 8 -40 11 -25 11 1 0 35 -6 20 -8 21 -8 5z"/>
<path d="M3391 8124 c0 -11 3 -14 6 -6 3 7 2 16 -1 19 -3 4 -6 -2 -5 -13z"/>
<path d="M3480 7995 c0 -5 5 -17 10 -25 5 -8 10 -10 10 -5 0 6 -5 17 -10 25
-5 8 -10 11 -10 5z"/>
<path d="M3440 7830 c0 -19 3 -21 12 -12 9 9 9 15 0 24 -9 9 -12 7 -12 -12z"/>
<path d="M8311 7704 c0 -11 3 -14 6 -6 3 7 2 16 -1 19 -3 4 -6 -2 -5 -13z"/>
<path d="M3600 7681 c0 -12 5 -21 10 -21 6 0 10 6 10 14 0 8 -4 18 -10 21 -5
3 -10 -3 -10 -14z"/>
<path d="M8340 7690 c0 -5 5 -10 11 -10 5 0 7 5 4 10 -3 6 -8 10 -11 10 -2 0
-4 -4 -4 -10z"/>
<path d="M8505 7680 c11 -5 27 -9 35 -9 9 0 8 4 -5 9 -11 5 -27 9 -35 9 -9 0
-8 -4 5 -9z"/>
<path d="M8585 7661 c-3 -5 -1 -12 5 -16 5 -3 10 1 10 9 0 18 -6 21 -15 7z"/>
<path d="M8475 7630 c3 -5 8 -10 11 -10 2 0 4 5 4 10 0 6 -5 10 -11 10 -5 0
-7 -4 -4 -10z"/>
<path d="M3536 7591 c-4 -24 -5 -46 -2 -48 7 -7 19 63 14 79 -3 7 -8 -7 -12
-31z"/>
<path d="M3650 7615 c0 -8 4 -15 10 -15 5 0 7 7 4 15 -4 8 -8 15 -10 15 -2 0
-4 -7 -4 -15z"/>
<path d="M3512 7600 c0 -14 2 -19 5 -12 2 6 2 18 0 25 -3 6 -5 1 -5 -13z"/>
<path d="M8750 7590 c8 -5 22 -9 30 -9 10 0 8 3 -5 9 -27 12 -43 12 -25 0z"/>
<path d="M8608 7573 c7 -3 16 -2 19 1 4 3 -2 6 -13 5 -11 0 -14 -3 -6 -6z"/>
<path d="M8835 7550 c3 -5 11 -10 16 -10 6 0 7 5 4 10 -3 6 -11 10 -16 10 -6
0 -7 -4 -4 -10z"/>
<path d="M8830 7510 c-8 -5 -10 -10 -5 -10 6 0 17 5 25 10 8 5 11 10 5 10 -5
0 -17 -5 -25 -10z"/>
<path d="M3750 7450 c0 -5 5 -10 11 -10 5 0 7 5 4 10 -3 6 -8 10 -11 10 -2 0
-4 -4 -4 -10z"/>
<path d="M9035 7442 c3 -3 24 -7 46 -8 22 -1 38 0 35 3 -3 3 -24 7 -46 8 -22
1 -38 0 -35 -3z"/>
<path d="M3600 7391 c0 -6 4 -13 10 -16 6 -3 7 1 4 9 -7 18 -14 21 -14 7z"/>
<path d="M9187 7389 c7 -7 15 -10 18 -7 3 3 -2 9 -12 12 -14 6 -15 5 -6 -5z"/>
<path d="M9267 7370 c-3 -11 -1 -20 4 -20 5 0 9 9 9 20 0 11 -2 20 -4 20 -2 0
-6 -9 -9 -20z"/>
<path d="M3810 7340 c-13 -8 -12 -10 3 -10 9 0 17 5 17 10 0 12 -1 12 -20 0z"/>
<path d="M3695 7249 c-11 -16 -1 -19 13 -3 7 8 8 14 3 14 -5 0 -13 -5 -16 -11z"/>
<path d="M3920 7190 c0 -5 5 -10 11 -10 5 0 7 5 4 10 -3 6 -8 10 -11 10 -2 0
-4 -4 -4 -10z"/>
<path d="M3980 7107 c0 -19 16 -31 24 -18 3 5 -1 14 -9 21 -12 10 -15 10 -15
-3z"/>
<path d="M3808 7073 c7 -3 16 -2 19 1 4 3 -2 6 -13 5 -11 0 -14 -3 -6 -6z"/>
<path d="M4025 7061 c-3 -5 -1 -12 5 -16 5 -3 10 1 10 9 0 18 -6 21 -15 7z"/>
<path d="M3851 7040 c0 -8 4 -22 9 -30 12 -18 12 -2 0 25 -6 13 -9 15 -9 5z"/>
<path d="M3930 6930 c0 -5 5 -10 10 -10 6 0 10 5 10 10 0 6 -4 10 -10 10 -5 0
-10 -4 -10 -10z"/>
<path d="M3951 6894 c0 -11 3 -14 6 -6 3 7 2 16 -1 19 -3 4 -6 -2 -5 -13z"/>
<path d="M4160 6870 c0 -5 7 -10 16 -10 8 0 12 5 9 10 -3 6 -10 10 -16 10 -5
0 -9 -4 -9 -10z"/>
<path d="M4010 6829 c0 -5 5 -7 10 -4 6 3 10 8 10 11 0 2 -4 4 -10 4 -5 0 -10
-5 -10 -11z"/>
<path d="M8695 6780 c-42 -46 34 -93 171 -107 49 -5 54 -4 54 14 0 33 -134
113 -190 113 -9 0 -25 -9 -35 -20z"/>
<path d="M4075 6749 c-10 -15 3 -25 16 -12 7 7 7 13 1 17 -6 3 -14 1 -17 -5z"/>
<path d="M4300 6730 c0 -5 5 -10 11 -10 5 0 7 5 4 10 -3 6 -8 10 -11 10 -2 0
-4 -4 -4 -10z"/>
<path d="M4104 6689 c-3 -6 -1 -16 4 -21 8 -8 11 -5 9 11 -1 24 -3 25 -13 10z"/>
<path d="M4360 6666 c0 -2 8 -10 18 -17 15 -13 16 -12 3 4 -13 16 -21 21 -21
13z"/>
<path d="M4180 6595 c-8 -9 -8 -15 -2 -15 12 0 26 19 19 26 -2 2 -10 -2 -17
-11z"/>
<path d="M4460 6561 c0 -6 4 -13 10 -16 6 -3 7 1 4 9 -7 18 -14 21 -14 7z"/>
<path d="M8610 6461 c-14 -27 -14 -27 18 -57 52 -50 122 -64 122 -25 0 22 -15
40 -62 74 -43 32 -64 34 -78 8z"/>
<path d="M4333 6443 c-7 -2 -13 -8 -13 -13 0 -13 29 -20 36 -8 5 7 2 8 -6 3
-10 -6 -12 -4 -7 8 3 10 5 17 4 16 -1 0 -8 -3 -14 -6z"/>
<path d="M4520 6390 c0 -5 5 -10 11 -10 5 0 7 5 4 10 -3 6 -8 10 -11 10 -2 0
-4 -4 -4 -10z"/>
<path d="M4400 6364 c0 -1 6 -7 14 -13 10 -9 15 -8 19 2 3 8 -3 13 -14 13 -11
0 -19 -1 -19 -2z"/>
<path d="M4740 6306 c0 -2 7 -7 16 -10 8 -3 12 -2 9 4 -6 10 -25 14 -25 6z"/>
<path d="M4485 6290 c3 -5 11 -10 16 -10 6 0 7 5 4 10 -3 6 -11 10 -16 10 -6
0 -7 -4 -4 -10z"/>
<path d="M4515 6270 c-3 -5 -1 -10 4 -10 6 0 11 5 11 10 0 6 -2 10 -4 10 -3 0
-8 -4 -11 -10z"/>
<path d="M4562 6248 c2 -6 10 -14 16 -16 7 -2 10 2 6 12 -7 18 -28 22 -22 4z"/>
<path d="M4640 6206 c0 -14 29 -30 38 -21 3 3 0 5 -6 5 -7 0 -12 7 -12 15 0 8
-4 15 -10 15 -5 0 -10 -6 -10 -14z"/>
<path d="M4905 6181 c-3 -5 -1 -12 5 -16 5 -3 10 1 10 9 0 18 -6 21 -15 7z"/>
<path d="M4745 6130 c3 -5 8 -10 11 -10 2 0 4 5 4 10 0 6 -5 10 -11 10 -5 0
-7 -4 -4 -10z"/>
<path d="M4790 6111 c27 -22 40 -26 40 -12 0 5 -8 11 -17 15 -10 3 -25 9 -33
12 -8 3 -4 -4 10 -15z"/>
<path d="M5012 6095 c-17 -19 -1 -19 24 0 14 11 15 14 4 14 -8 0 -21 -6 -28
-14z"/>
<path d="M5030 5976 c0 -2 7 -6 15 -10 8 -3 15 -1 15 4 0 6 -7 10 -15 10 -8 0
-15 -2 -15 -4z"/>
<path d="M5004 5955 c11 -8 24 -15 30 -15 5 0 1 7 -10 15 -10 8 -23 14 -29 14
-5 0 -1 -6 9 -14z"/>
<path d="M5295 5943 c11 -3 22 -9 25 -13 8 -11 81 -20 75 -9 -4 5 -19 9 -35 9
-16 0 -32 5 -35 10 -3 6 -16 9 -28 9 -20 -1 -21 -2 -2 -6z"/>
<path d="M5250 5900 l-35 -7 35 -1 c19 0 44 3 55 8 l20 9 -20 -1 c-11 0 -36
-4 -55 -8z"/>
<path d="M5228 5863 c6 -2 18 -2 25 0 6 3 1 5 -13 5 -14 0 -19 -2 -12 -5z"/>
<path d="M5548 5853 c7 -3 16 -2 19 1 4 3 -2 6 -13 5 -11 0 -14 -3 -6 -6z"/>
<path d="M5648 5823 c7 -3 16 -2 19 1 4 3 -2 6 -13 5 -11 0 -14 -3 -6 -6z"/>
<path d="M5548 5802 c-9 -4 27 -7 80 -8 79 -1 88 1 47 7 -63 9 -105 10 -127 1z"/>
<path d="M5928 5523 c7 -3 16 -2 19 1 4 3 -2 6 -13 5 -11 0 -14 -3 -6 -6z"/>
<path d="M6278 5518 c5 -5 16 -8 23 -6 8 3 3 7 -10 11 -17 4 -21 3 -13 -5z"/>
<path d="M6348 5503 c6 -2 18 -2 25 0 6 3 1 5 -13 5 -14 0 -19 -2 -12 -5z"/>
<path d="M6070 5470 c0 -5 5 -10 11 -10 5 0 7 5 4 10 -3 6 -8 10 -11 10 -2 0
-4 -4 -4 -10z"/>
<path d="M6471 5476 c2 -2 20 -6 39 -10 25 -4 31 -3 20 4 -14 9 -69 15 -59 6z"/>
<path d="M6598 5443 c7 -3 16 -2 19 1 4 3 -2 6 -13 5 -11 0 -14 -3 -6 -6z"/>
<path d="M6228 5413 c12 -2 30 -2 40 0 9 3 -1 5 -23 4 -22 0 -30 -2 -17 -4z"/>
<path d="M6470 5410 c0 -5 7 -7 15 -4 8 4 15 8 15 10 0 2 -7 4 -15 4 -8 0 -15
-4 -15 -10z"/>
<path d="M6358 5403 c7 -3 16 -2 19 1 4 3 -2 6 -13 5 -11 0 -14 -3 -6 -6z"/>
<path d="M6410 5391 c0 -5 9 -11 19 -14 14 -3 18 -1 14 9 -6 15 -33 19 -33 5z"/>
<path d="M7000 5380 c0 -5 8 -10 18 -10 9 0 35 -3 57 -5 28 -4 34 -3 20 3 -36
16 -95 24 -95 12z"/>
<path d="M6495 5360 c-3 -5 1 -10 9 -10 9 0 16 5 16 10 0 6 -4 10 -9 10 -6 0
-13 -4 -16 -10z"/>
<path d="M7198 5353 c23 -2 61 -2 85 0 23 2 4 4 -43 4 -47 0 -66 -2 -42 -4z"/>
<path d="M6898 5333 c7 -3 16 -2 19 1 4 3 -2 6 -13 5 -11 0 -14 -3 -6 -6z"/>
<path d="M7665 4113 c-11 -2 -85 -19 -165 -38 -80 -19 -181 -37 -225 -40 -129
-9 -145 -13 -145 -35 0 -28 36 -34 154 -27 122 8 276 45 368 90 85 40 92 67
13 50z"/>
<path d="M2217 4253 c-16 -15 -5 -44 26 -66 54 -41 132 -62 227 -62 101 1 145
17 145 55 l0 25 -120 0 c-107 1 -127 4 -186 28 -69 28 -81 31 -92 20z"/>
<path d="M10349 8260 c-31 -25 -23 -25 26 0 29 15 33 20 18 20 -11 0 -31 -9
-44 -20z"/>
</g>
</svg>
